<?xml version="1.0" standalone="no"?>
<!DOCTYPE svg PUBLIC "-//W3C//DTD SVG 20010904//EN"
 "http://www.w3.org/TR/2001/REC-SVG-20010904/DTD/svg10.dtd">
<svg version="1.0" xmlns="http://www.w3.org/2000/svg"
 width="1024.000000pt" height="1024.000000pt" viewBox="0 0 1024.000000 1024.000000"
 preserveAspectRatio="xMidYMid meet">
<metadata>
Created by potrace 1.11, written by Peter Selinger 2001-2013
</metadata>
<g transform="translate(0.000000,1024.000000) scale(0.100000,-0.100000)"
fill="#000000" stroke="none">
<path d="M3667 8263 c-24 -43 -54 -94 -65 -113 -11 -19 -60 -105 -109 -190
-50 -85 -124 -213 -165 -285 -41 -71 -110 -191 -153 -265 -43 -74 -102 -175
-130 -225 -48 -84 -77 -133 -222 -382 -31 -54 -73 -128 -94 -164 -21 -36 -120
-207 -220 -380 -100 -173 -214 -370 -254 -439 -92 -161 -556 -964 -584 -1010
-11 -19 -28 -48 -37 -65 -9 -16 -98 -169 -197 -340 -99 -170 -191 -330 -205
-355 -14 -25 -115 -199 -224 -388 -109 -188 -201 -349 -205 -357 -4 -13 54
-14 458 -9 255 3 477 7 493 8 26 1 36 11 76 81 26 44 82 141 125 215 43 74 91
160 108 190 16 30 36 62 43 71 8 8 14 18 14 20 0 6 19 38 325 569 310 538 435
753 580 1005 75 132 141 245 145 250 4 6 20 32 35 60 15 27 70 124 123 215 52
91 100 174 106 185 50 89 109 185 115 185 4 0 15 -15 24 -32 9 -18 30 -55 46
-83 16 -27 36 -61 44 -75 7 -14 70 -122 139 -240 68 -118 138 -237 153 -265
36 -63 87 -151 100 -173 6 -9 35 -60 65 -112 30 -52 60 -103 65 -112 6 -9 46
-79 89 -155 44 -76 98 -169 121 -208 23 -38 144 -246 268 -462 125 -215 235
-405 244 -422 162 -280 203 -351 219 -381 11 -19 21 -37 24 -40 3 -3 59 -97
124 -210 64 -113 121 -212 127 -220 11 -19 278 -481 311 -540 14 -25 96 -166
182 -314 86 -147 156 -272 156 -277 0 -5 5 -9 10 -9 6 0 10 -4 10 -9 0 -19 73
-132 81 -124 7 8 116 195 393 678 76 132 145 251 154 265 9 14 17 27 17 30 1
3 16 31 35 63 19 33 43 73 54 90 10 18 78 136 151 262 73 127 165 286 205 355
40 69 81 141 92 160 11 19 106 184 211 365 104 182 222 386 262 455 40 69 98
170 130 225 32 55 117 204 190 330 73 127 181 313 240 415 59 102 177 307 263
455 287 498 369 639 427 740 32 55 118 204 190 330 73 127 162 281 199 344 36
62 66 114 66 115 0 1 -295 1 -656 1 l-656 0 -76 -130 c-91 -156 -138 -238
-164 -285 -11 -19 -37 -64 -58 -100 -21 -36 -47 -81 -58 -100 -10 -19 -68
-118 -127 -220 -59 -102 -117 -203 -130 -225 -31 -55 -169 -295 -194 -336 -11
-19 -42 -72 -69 -119 -26 -47 -100 -175 -164 -285 -63 -110 -197 -342 -297
-515 -100 -173 -187 -324 -193 -335 -6 -11 -57 -99 -113 -195 -56 -96 -153
-263 -215 -372 l-114 -196 -28 44 c-15 25 -28 47 -28 50 0 3 -8 18 -18 32 -11
15 -32 52 -49 82 -17 30 -101 177 -188 325 -86 149 -167 288 -179 310 -12 22
-122 211 -243 420 -121 209 -229 396 -240 415 -11 19 -35 60 -53 90 -18 30
-42 71 -53 90 -10 19 -77 134 -147 255 -70 121 -161 279 -202 350 -41 72 -142
245 -223 385 -81 140 -156 269 -165 285 -17 29 -75 129 -308 530 -57 99 -113
196 -124 215 -45 78 -119 206 -128 220 -5 8 -17 30 -26 48 -9 18 -20 35 -24
37 -5 3 -28 -30 -53 -72z"/>
<path d="M4340 7560 c1 -3 14 -27 30 -55 29 -50 78 -137 118 -206 11 -20 86
-151 167 -290 331 -570 408 -703 427 -738 23 -41 384 -667 416 -721 12 -19 27
-46 35 -60 7 -14 107 -187 222 -385 114 -198 249 -431 298 -517 l91 -157 23
34 c13 19 23 37 23 40 0 4 23 44 50 91 28 47 50 87 50 90 0 2 11 21 23 42 13
20 38 62 54 92 17 30 120 213 228 405 109 193 209 370 223 395 14 25 36 62 49
82 12 21 23 40 23 42 0 3 13 27 29 54 16 27 44 76 62 108 49 88 53 96 239 424
171 303 321 568 564 999 69 123 126 226 126 230 0 4 -227 7 -503 7 l-504 0
-170 -296 c-93 -162 -263 -458 -378 -657 l-209 -361 -28 44 c-15 25 -28 47
-28 50 0 2 -11 21 -23 42 -13 20 -41 69 -62 107 -21 39 -44 77 -51 86 -8 8
-14 18 -14 21 0 4 -27 52 -60 108 -33 56 -60 104 -60 106 0 3 -8 17 -19 32
-19 28 -364 626 -388 674 -8 15 -20 31 -26 35 -13 9 -1047 12 -1047 3z"/>
<path d="M3495 5933 c-28 -47 -62 -107 -76 -132 -14 -25 -66 -113 -114 -196
-48 -82 -112 -193 -142 -245 -31 -52 -66 -112 -79 -132 -13 -21 -24 -39 -24
-42 0 -4 -139 -244 -160 -276 -5 -8 -18 -31 -29 -50 -10 -19 -63 -109 -117
-200 -53 -91 -106 -181 -116 -200 -11 -19 -25 -44 -31 -55 -7 -11 -61 -104
-120 -205 -60 -102 -112 -192 -117 -200 -45 -73 -310 -534 -310 -537 0 -3 -8
-17 -18 -31 -10 -15 -33 -53 -51 -84 l-32 -58 383 0 384 0 472 828 c260 455
480 838 488 852 8 14 66 115 128 224 102 179 113 202 101 220 -7 12 -90 149
-185 306 -95 157 -176 288 -179 292 -4 4 -29 -32 -56 -79z"/>
</g>
</svg>
